<?xml version="1.0" encoding="UTF-8"?>
<svg xmlns="http://www.w3.org/2000/svg" xmlns:xlink="http://www.w3.org/1999/xlink" viewBox="0 0 48 48" width="48px" height="48px">
<g id="surface11637353">
<path style="fill-rule:nonzero;fill:rgb(0%,0%,0%);fill-opacity:1;stroke-width:10;stroke-linecap:butt;stroke-linejoin:round;stroke:rgb(100%,100%,100%);stroke-opacity:1;stroke-miterlimit:10;" d="M 155.868484 86.000001 C 155.868484 117.28307 135.309346 143.752219 106.959064 152.654267 L 106.959064 129.665951 C 106.959064 123.385638 104.352142 117.78668 99.967772 113.950356 C 116.364722 110.676891 127.918128 101.271234 127.918128 86.000001 C 127.918128 78.268106 124.881656 71.158317 119.771496 65.366802 C 120.215857 64.004093 120.941648 60.849124 120.941648 55.42791 C 120.941648 52.110009 120.719467 48.036693 119.193825 44.081873 C 119.193825 44.081873 109.225309 44.141121 99.834464 53.043169 C 95.494531 51.784144 90.843544 51.058353 86.000001 51.058353 C 81.156457 51.058353 76.505471 51.784144 72.165537 53.043169 C 62.774692 44.141121 52.806176 44.081873 52.806176 44.081873 C 51.295346 48.036693 51.058353 52.110009 51.058353 55.42791 C 51.058353 60.449199 51.961889 63.530107 52.495123 65.055749 C 47.236842 70.8917 44.081873 78.134797 44.081873 86.000001 C 44.081873 101.271234 55.635279 110.676891 72.032229 113.950356 C 68.344026 117.179385 66.092593 121.711875 65.366802 126.7776 C 63.811536 127.533015 61.545291 127.918128 58.923556 127.918128 C 56.820244 127.918128 52.732116 126.92572 48.925416 121.000897 C 47.384962 118.601343 44.081873 113.950356 39.712316 113.950356 C 38.853216 113.950356 37.060957 113.891108 37.090581 115.209381 C 37.105393 115.8463 38.068177 115.8463 40.127053 117.682995 C 41.845252 119.238261 43.459767 121.756312 44.081873 124.437294 C 45.089093 128.806852 49.147597 137.531155 58.923556 137.531155 C 62.419202 137.531155 65.040937 136.657243 65.040937 136.657243 L 65.040937 152.654267 C 36.690656 143.752219 16.131517 117.28307 16.131517 86.000001 C 16.131517 47.414586 47.414586 16.131517 86.000001 16.131517 C 124.585415 16.131517 155.868484 47.414586 155.868484 86.000001 Z M 69.751172 153.957728 C 68.166281 153.572615 66.581391 153.157877 65.040937 152.669079 L 65.040937 152.654267 C 66.581391 153.143065 68.166281 153.572615 69.751172 153.957728 Z M 106.959064 152.669079 C 105.41861 153.157877 103.83372 153.572615 102.24883 153.957728 C 103.83372 153.572615 105.41861 153.143065 106.959064 152.654267 Z M 90.873168 155.690739 C 89.258654 155.794424 87.644139 155.868484 86.000001 155.868484 C 87.644139 155.868484 89.258654 155.794424 90.873168 155.690739 Z M 101.552663 154.120661 C 98.427318 154.83164 95.213101 155.33525 91.939636 155.601867 C 95.213101 155.33525 98.427318 154.83164 101.552663 154.120661 Z M 86.000001 155.868484 C 84.355862 155.868484 82.741348 155.794424 81.126833 155.690739 C 82.741348 155.794424 84.355862 155.868484 86.000001 155.868484 Z M 80.060365 155.601867 C 76.7869 155.33525 73.572683 154.83164 70.447338 154.120661 C 73.572683 154.83164 76.7869 155.33525 80.060365 155.601867 Z M 80.060365 155.601867 " transform="matrix(0.263721,0,0,0.263721,1.32,1.32)"/>
<path style=" stroke:none;fill-rule:nonzero;fill:rgb(0%,0%,0%);fill-opacity:1;" d="M 24 5.574219 C 13.824219 5.574219 5.574219 13.824219 5.574219 24 C 5.574219 32.703125 11.605469 39.988281 19.714844 41.921875 C 19.296875 41.820312 18.878906 41.710938 18.472656 41.582031 L 18.472656 37.359375 C 18.472656 37.359375 17.78125 37.589844 16.859375 37.589844 C 14.28125 37.589844 13.210938 35.289062 12.945312 34.136719 C 12.78125 33.429688 12.355469 32.765625 11.902344 32.355469 C 11.359375 31.871094 11.105469 31.871094 11.101562 31.703125 C 11.09375 31.355469 11.566406 31.371094 11.792969 31.371094 C 12.945312 31.371094 13.816406 32.597656 14.222656 33.230469 C 15.226562 34.792969 16.304688 35.054688 16.859375 35.054688 C 17.550781 35.054688 18.148438 34.953125 18.558594 34.753906 C 18.75 33.417969 19.34375 32.222656 20.316406 31.371094 C 15.992188 30.507812 12.945312 28.027344 12.945312 24 C 12.945312 21.925781 13.777344 20.015625 15.164062 18.476562 C 15.023438 18.074219 14.785156 17.261719 14.785156 15.9375 C 14.785156 15.0625 14.847656 13.988281 15.246094 12.945312 C 15.246094 12.945312 17.875 12.960938 20.351562 15.308594 C 21.496094 14.976562 22.722656 14.785156 24 14.785156 C 25.277344 14.785156 26.503906 14.976562 27.648438 15.308594 C 30.125 12.960938 32.753906 12.945312 32.753906 12.945312 C 33.15625 13.988281 33.214844 15.0625 33.214844 15.9375 C 33.214844 17.367188 33.023438 18.199219 32.90625 18.558594 C 34.253906 20.085938 35.054688 21.960938 35.054688 24 C 35.054688 28.027344 32.007812 30.507812 27.683594 31.371094 C 28.839844 32.382812 29.527344 33.859375 29.527344 35.515625 L 29.527344 41.582031 C 29.121094 41.710938 28.703125 41.820312 28.285156 41.921875 C 36.394531 39.988281 42.425781 32.703125 42.425781 24 C 42.425781 13.824219 34.175781 5.574219 24 5.574219 Z M 25.285156 42.378906 C 24.859375 42.40625 24.433594 42.425781 24 42.425781 C 24.433594 42.425781 24.859375 42.40625 25.285156 42.378906 Z M 28.101562 41.964844 C 27.277344 42.152344 26.429688 42.285156 25.566406 42.355469 C 26.429688 42.285156 27.277344 42.152344 28.101562 41.964844 Z M 24 42.425781 C 23.566406 42.425781 23.140625 42.40625 22.714844 42.378906 C 23.140625 42.40625 23.566406 42.425781 24 42.425781 Z M 22.433594 42.355469 C 21.570312 42.285156 20.722656 42.152344 19.898438 41.964844 C 20.722656 42.152344 21.570312 42.285156 22.433594 42.355469 Z M 22.433594 42.355469 "/>
</g>
</svg>
